<svg xmlns="http://www.w3.org/2000/svg" viewBox="0 0 64 64" role="img" aria-labelledby="title desc">
  <title id="title">ASTRA-X logo</title>
  <desc id="desc">A dark shield mark with a precision A and X monogram in green and blue.</desc>
  <defs>
    <linearGradient id="shell" x1="8" y1="7" x2="57" y2="58" gradientUnits="userSpaceOnUse">
      <stop offset="0" stop-color="#111b16"/>
      <stop offset="0.52" stop-color="#08110d"/>
      <stop offset="1" stop-color="#050807"/>
    </linearGradient>
    <linearGradient id="green" x1="16" y1="12" x2="48" y2="52" gradientUnits="userSpaceOnUse">
      <stop offset="0" stop-color="#7dffbe"/>
      <stop offset="0.48" stop-color="#00cc66"/>
      <stop offset="1" stop-color="#0fa968"/>
    </linearGradient>
    <linearGradient id="blue" x1="45" y1="17" x2="18" y2="48" gradientUnits="userSpaceOnUse">
      <stop offset="0" stop-color="#6ab4ff"/>
      <stop offset="1" stop-color="#00cc66"/>
    </linearGradient>
    <filter id="glow" x="-30%" y="-30%" width="160%" height="160%">
      <feGaussianBlur stdDeviation="1.35" result="blur"/>
      <feColorMatrix in="blur" type="matrix" values="0 0 0 0 0  0 0 0 0 0.8  0 0 0 0 0.4  0 0 0 .45 0"/>
      <feBlend in="SourceGraphic"/>
    </filter>
  </defs>

  <rect x="3" y="3" width="58" height="58" rx="14" fill="url(#shell)"/>
  <path d="M32 7.5 53 16.2v15.9c0 12.1-7.9 21-21 24.4-13.1-3.4-21-12.3-21-24.4V16.2L32 7.5Z" fill="#0b1410" stroke="#00cc66" stroke-opacity=".45" stroke-width="1.5"/>
  <path d="M18.2 47.2 30.3 16.8c.6-1.5 2.8-1.5 3.4 0l12.1 30.4h-7.4l-2.2-6.2h-8.4l-2.2 6.2h-7.4Zm11.7-12.4h4.2L32 27.8l-2.1 7Z" fill="url(#green)" filter="url(#glow)"/>
  <path d="M44.9 18.9 19.1 45.1" fill="none" stroke="#06100a" stroke-width="7" stroke-linecap="round"/>
  <path d="M44.8 18.8 19.2 45.2" fill="none" stroke="url(#blue)" stroke-width="3.2" stroke-linecap="round"/>
  <path d="M19.9 18.6 45.2 45.4" fill="none" stroke="#0d1511" stroke-width="6.2" stroke-linecap="round" opacity=".82"/>
  <path d="M21.5 20.2 43.7 43.7" fill="none" stroke="#00cc66" stroke-opacity=".58" stroke-width="2.1" stroke-linecap="round"/>
  <path d="M13.8 16.9 32 9.7l18.2 7.2" fill="none" stroke="#e7ece9" stroke-opacity=".1" stroke-width="1"/>
</svg>
